<svg xmlns="http://www.w3.org/2000/svg" viewBox="0 0 96 96" role="img" aria-label="AuraKernel terminal core mark">
  <defs>
    <linearGradient id="ak-aura" x1="12" y1="12" x2="84" y2="84" gradientUnits="userSpaceOnUse">
      <stop stop-color="#67E8D2"/>
      <stop offset=".55" stop-color="#55B8FF"/>
      <stop offset="1" stop-color="#C099FF"/>
    </linearGradient>
  </defs>
  <circle cx="48" cy="48" r="41" fill="none" stroke="#1D2A33" stroke-width="2" stroke-dasharray="2 6"/>
  <circle cx="48" cy="48" r="41" fill="none" stroke="url(#ak-aura)" stroke-width="2.5" stroke-linecap="round" stroke-dasharray="79 179" transform="rotate(-28 48 48)"/>
  <circle cx="48" cy="48" r="41" fill="none" stroke="#FFB86C" stroke-width="2.5" stroke-linecap="round" stroke-dasharray="31 227" transform="rotate(142 48 48)"/>
  <g fill="#67E8D2">
    <circle cx="17.5" cy="20.5" r="2"/><circle cx="78.5" cy="75.5" r="2"/>
  </g>
  <rect x="18" y="22" width="60" height="52" rx="8" fill="#091018" stroke="#2B3C49" stroke-width="1.5"/>
  <path d="M19 31h58" stroke="#1F2E3A"/>
  <circle cx="25" cy="27" r="1.5" fill="#FF5D7A"/><circle cx="30" cy="27" r="1.5" fill="#F4D35E"/><circle cx="35" cy="27" r="1.5" fill="#67E8D2"/>
  <path d="m27 39 10 9-10 9" fill="none" stroke="#67E8D2" stroke-width="3" stroke-linecap="square" stroke-linejoin="miter"/>
  <g fill="#55B8FF">
    <rect x="48" y="37" width="5" height="5" rx="1"/><rect x="56" y="37" width="5" height="5" rx="1"/><rect x="64" y="37" width="5" height="5" rx="1"/>
    <rect x="48" y="45" width="5" height="5" rx="1"/><rect x="56" y="45" width="5" height="5" rx="1" fill="#C099FF"/><rect x="64" y="45" width="5" height="5" rx="1"/>
    <rect x="48" y="53" width="5" height="5" rx="1"/><rect x="56" y="53" width="5" height="5" rx="1"/><rect x="64" y="53" width="5" height="5" rx="1"/>
  </g>
  <path d="M48 64h21" stroke="#FFB86C" stroke-width="2.5" stroke-linecap="square"/>
</svg>
